<svg width="420" height="121" viewBox="0 0 420 121" fill="none" xmlns="http://www.w3.org/2000/svg">
<rect width="420" height="121" rx="20" fill="white"/>
<path d="M87.0007 85.7763L86.7204 85.0638C86.5958 84.7523 86.4984 84.5187 86.4283 84.363C86.3349 84.2851 86.0156 84.141 85.4705 83.9308C85.0422 83.7595 84.7347 83.631 84.5478 83.5453C84.3609 83.4597 84.2674 83.3818 84.2674 83.3117C84.2674 83.2961 84.2791 83.2572 84.3025 83.1949C84.3258 83.1326 84.3414 83.0937 84.3492 83.0781H91.8482C91.8559 83.1015 91.8676 83.1404 91.8832 83.1949C91.9066 83.2494 91.9182 83.2883 91.9182 83.3117C91.9182 83.4908 91.8326 83.6076 91.6613 83.6621C91.4977 83.7166 91.2369 83.7595 90.8787 83.7906C90.4815 83.8218 90.1817 83.8763 89.9793 83.9541C89.7768 84.0242 89.6756 84.1761 89.6756 84.4097C89.6756 84.5732 90.1116 86.0333 90.9838 88.7899C91.8637 91.5466 92.4439 93.3298 92.7242 94.1397L93.0513 93.1468C94.8734 87.7036 95.7845 84.7951 95.7845 84.4214C95.7845 84.18 95.6677 84.0125 95.4341 83.9191C95.2005 83.8179 94.8579 83.7361 94.4062 83.6738C94.2193 83.6504 94.0363 83.6193 93.8572 83.5804C93.6781 83.5414 93.538 83.4947 93.4367 83.4402L93.3666 83.3117L93.4367 83.0781H99.4756C99.5068 83.0781 99.5457 83.0937 99.5924 83.1248C99.6391 83.1482 99.6703 83.1754 99.6859 83.2066C99.6859 83.3234 99.5963 83.4168 99.4172 83.4869C99.2381 83.5492 98.95 83.6232 98.5528 83.7089C97.9688 83.8334 97.5055 83.9697 97.1628 84.1177C96.8202 84.2578 96.5944 84.4759 96.4854 84.7718C96.3997 85.0132 96.3102 85.2935 96.2167 85.6128C96.1233 85.9243 96.0571 86.1462 96.0181 86.2786C95.9714 86.4655 95.9325 86.6056 95.9013 86.6991L92.4088 98.2746C92.3621 98.4303 92.1986 98.5082 91.9182 98.5082C91.7936 98.5082 91.6885 98.4926 91.6029 98.4615C91.525 98.4303 91.4627 98.368 91.416 98.2746C91.268 97.9865 91.1201 97.5621 90.9721 97.0014L90.7619 96.3356L87.4446 86.6757L84.4193 95.3778C84.3492 95.5725 84.2519 95.8879 84.1273 96.3239C83.9793 96.8145 83.8547 97.2 83.7535 97.4803C83.6522 97.7606 83.5393 98.0254 83.4147 98.2746C83.368 98.3758 83.3057 98.442 83.2279 98.4732C83.15 98.5121 83.0488 98.5316 82.9242 98.5316C82.6905 98.5316 82.492 98.368 82.3284 98.041C82.1649 97.7139 82.0014 97.2934 81.8379 96.7795L81.7211 96.4057L80.1208 92.1189C79.2564 89.7672 78.3804 87.4311 77.4927 85.1105C77.3681 84.7913 77.1851 84.5537 76.9437 84.398C76.7101 84.2345 76.3947 84.0787 75.9975 83.9308C75.7016 83.8218 75.4758 83.7283 75.3201 83.6504C75.1643 83.5726 75.0203 83.4675 74.8879 83.3351L74.9696 83.0781H82.4803C82.4881 83.1015 82.4998 83.1404 82.5153 83.1949C82.5309 83.2416 82.5387 83.2806 82.5387 83.3117C82.5387 83.4675 82.4608 83.5765 82.3051 83.6388C82.1571 83.6933 81.9313 83.74 81.6276 83.7789C81.2538 83.8257 80.9657 83.8957 80.7632 83.9892C80.5686 84.0748 80.4712 84.2384 80.4712 84.4798C80.4712 84.5888 80.8878 85.8269 81.7211 88.1942C82.5621 90.5615 83.2746 92.5511 83.8586 94.163L87.0007 85.7763ZM102.186 92.0722L101.964 92.6329C101.613 93.5439 101.337 94.2954 101.134 94.8872C100.932 95.4712 100.831 95.9229 100.831 96.2422C100.831 96.5225 100.932 96.7522 101.134 96.9313C101.345 97.1104 101.582 97.2428 101.847 97.3285C102.119 97.4141 102.45 97.4959 102.84 97.5738L103.062 97.6205V98.2863H97.5483V97.6789C97.6573 97.5932 97.7663 97.5231 97.8754 97.4686C97.9922 97.4063 98.1362 97.3401 98.3075 97.2701C98.5801 97.161 98.7981 97.0481 98.9617 96.9313C99.133 96.8145 99.2848 96.6315 99.4172 96.3823C99.4951 96.2266 99.573 96.0514 99.6508 95.8567C99.7365 95.6542 99.791 95.5219 99.8143 95.4596L99.9545 95.0975L104.323 83.9074C104.354 83.8218 104.378 83.6738 104.393 83.4636C104.401 83.3078 104.413 83.1832 104.428 83.0898C104.452 82.9885 104.49 82.899 104.545 82.8211C104.927 82.8211 105.254 82.8601 105.526 82.9379C105.807 83.0158 106.087 83.1599 106.367 83.3701L111.729 96.2305C111.83 96.4719 111.947 96.6666 112.079 96.8145C112.211 96.9547 112.348 97.0637 112.488 97.1416C112.636 97.2117 112.834 97.2973 113.084 97.3985C113.294 97.4686 113.516 97.5621 113.749 97.6789L113.726 98.2863H106.928L106.904 97.6789C107.27 97.5699 107.582 97.4608 107.839 97.3518C108.104 97.2428 108.341 97.091 108.551 96.8963C108.762 96.7016 108.867 96.4641 108.867 96.1838C108.867 95.8723 108.477 94.7159 107.699 92.7146C107.652 92.5978 107.605 92.4849 107.559 92.3759C107.52 92.2669 107.485 92.1656 107.453 92.0722H102.186ZM104.72 85.2974L102.583 91.0443H107.021L104.72 85.2974ZM128 83.7673C127.556 83.9464 127.198 84.106 126.925 84.2462C126.653 84.3863 126.384 84.5654 126.119 84.7835C125.862 85.0015 125.629 85.2741 125.418 85.6011L121.587 91.4765V95.4128C121.587 95.9502 121.638 96.3473 121.739 96.6043C121.84 96.8612 121.976 97.0326 122.148 97.1182C122.327 97.2039 122.588 97.2778 122.93 97.3401C123.39 97.418 123.787 97.5309 124.122 97.6789L124.098 98.2863H116.553L116.529 97.6789C116.732 97.5621 116.923 97.4803 117.102 97.4336C117.289 97.3869 117.518 97.344 117.791 97.3051C118.118 97.2584 118.363 97.1961 118.527 97.1182C118.69 97.0403 118.823 96.8651 118.924 96.5926C119.025 96.32 119.076 95.8956 119.076 95.3194V91.7218L114.812 85.0404C114.633 84.7601 114.298 84.4837 113.808 84.2111C113.317 83.9386 112.885 83.7595 112.511 83.6738V83.0781H119.753L119.777 83.6855C119.325 83.7634 118.897 83.9074 118.492 84.1177C118.095 84.3201 117.896 84.5966 117.896 84.947C117.896 85.1962 118.153 85.7374 118.667 86.5706C119.181 87.396 119.851 88.4278 120.676 89.666L121.225 90.4953C121.272 90.4096 121.381 90.2461 121.552 90.0047C123.359 87.3337 124.262 85.6556 124.262 84.9704C124.262 84.6589 124.11 84.4214 123.806 84.2578C123.503 84.0865 123.109 83.9386 122.627 83.814C122.611 83.814 122.514 83.7867 122.335 83.7322L122.311 83.4168C122.311 83.3623 122.319 83.2494 122.335 83.0781H128.198V83.6855L128 83.7673ZM139.003 83.9425C138.286 83.9425 137.718 83.9736 137.297 84.0359C137.025 84.0748 136.776 84.1839 136.55 84.363C136.332 84.5421 136.141 84.7445 135.978 84.9704C135.822 85.1962 135.631 85.4999 135.405 85.8814C135.172 86.2942 134.969 86.6056 134.798 86.8159H134.261L134.553 83.008C135.837 83.0625 137.496 83.0898 139.528 83.0898L144.084 83.0781H145.614C147.187 83.0781 148.46 83.0469 149.434 82.9847L149.807 86.8276H149.247C149.13 86.6874 149.009 86.5122 148.885 86.302C148.76 86.0839 148.678 85.9437 148.639 85.8814C148.328 85.3286 148.036 84.8964 147.763 84.5849C147.499 84.2734 147.183 84.0904 146.817 84.0359C146.552 83.997 146.284 83.9736 146.011 83.9658C145.746 83.9503 145.412 83.9425 145.007 83.9425H143.22V95.4712C143.22 96.0709 143.321 96.5186 143.523 96.8145C143.734 97.1026 144.006 97.2973 144.341 97.3985C144.684 97.4998 145.19 97.5932 145.859 97.6789C145.859 97.9514 145.852 98.1539 145.836 98.2863H138.103L138.08 97.6789C138.212 97.6322 138.419 97.5699 138.699 97.492C139.159 97.3518 139.521 97.2194 139.785 97.0949C140.05 96.9703 140.268 96.7795 140.44 96.5225C140.619 96.2655 140.708 95.9151 140.708 95.4712V83.9425H139.003ZM159.351 82.7861C160.814 82.7861 162.158 83.1131 163.38 83.7673C164.603 84.4214 165.572 85.3519 166.289 86.5589C167.013 87.7581 167.375 89.1442 167.375 90.7172C167.375 92.2591 167.001 93.6296 166.254 94.8288C165.514 96.0202 164.513 96.9469 163.252 97.6088C161.99 98.2629 160.612 98.59 159.117 98.59C157.739 98.59 156.45 98.2746 155.251 97.6438C154.051 97.0131 153.086 96.1098 152.354 94.9339C151.63 93.7581 151.268 92.3953 151.268 90.8457C151.268 89.1403 151.649 87.6803 152.412 86.4655C153.183 85.2507 154.184 84.3357 155.414 83.7205C156.652 83.0976 157.964 82.7861 159.351 82.7861ZM159.736 97.6906C160.67 97.6906 161.511 97.4414 162.259 96.943C163.007 96.4446 163.591 95.7243 164.011 94.7821C164.439 93.8399 164.654 92.7302 164.654 91.4531C164.654 90.0047 164.412 88.6926 163.929 87.5167C163.447 86.3331 162.769 85.3986 161.897 84.7134C161.033 84.0281 160.047 83.6855 158.942 83.6855C158.031 83.6855 157.197 83.923 156.442 84.398C155.694 84.8652 155.099 85.5661 154.655 86.5005C154.211 87.435 153.989 88.5602 153.989 89.8762C153.989 91.3402 154.234 92.6679 154.725 93.8593C155.216 95.0507 155.897 95.9891 156.769 96.6744C157.649 97.3518 158.638 97.6906 159.736 97.6906ZM177.619 86.337C177.619 85.7218 177.572 85.2702 177.479 84.982C177.385 84.6861 177.249 84.4837 177.07 84.3746C176.891 84.2578 176.599 84.1449 176.194 84.0359C176.139 84.0203 175.999 83.9814 175.773 83.9191C175.555 83.849 175.33 83.7673 175.096 83.6738L175.119 83.0781H181.754C183.015 83.0781 184.125 83.1521 185.083 83.3C186.049 83.4402 186.89 83.7906 187.606 84.3513C188.322 84.912 188.681 85.7607 188.681 86.8977C188.681 88.8055 187.275 89.9969 184.464 90.4719C185.274 90.5109 186.056 90.6666 186.812 90.9392C187.575 91.2039 188.206 91.6127 188.704 92.1656C189.202 92.7107 189.452 93.3921 189.452 94.2097C189.452 95.1831 189.152 95.9774 188.552 96.5926C187.952 97.2 187.205 97.6361 186.309 97.9008C185.414 98.1578 184.487 98.2863 183.529 98.2863H175.119L175.096 97.6789L175.517 97.5621C175.968 97.4453 176.334 97.3285 176.614 97.2117C176.895 97.0871 177.132 96.908 177.327 96.6744C177.522 96.433 177.619 96.1098 177.619 95.7049V86.337ZM180.13 89.7594C180.239 89.8606 180.383 89.9463 180.563 90.0164C180.742 90.0787 180.909 90.1098 181.065 90.1098H182.618C185.11 90.1098 186.356 89.1637 186.356 87.2714C186.356 86.2669 186.072 85.5232 185.503 85.0404C184.943 84.5499 184.277 84.2462 183.506 84.1294C182.735 84.0125 181.789 83.9541 180.668 83.9541H180.13V89.7594ZM180.13 95.0858C180.13 95.6309 180.224 96.1331 180.411 96.5926C180.605 97.0442 180.94 97.2701 181.415 97.2701H183.308C183.907 97.2701 184.448 97.1572 184.931 96.9313C185.422 96.6977 185.811 96.3629 186.099 95.9268C186.387 95.4829 186.531 94.9612 186.531 94.3616C186.531 93.3181 186.22 92.5472 185.597 92.0488C184.974 91.5427 184.246 91.2312 183.413 91.1144C182.587 90.9898 181.59 90.9275 180.422 90.9275C180.29 91.0443 180.208 91.1845 180.177 91.348C180.146 91.5037 180.13 91.7062 180.13 91.9554V95.0858ZM205.01 98.3914C204.886 98.4148 204.761 98.4264 204.636 98.4264C204.488 98.4264 204.266 98.4031 203.971 98.3564C203.675 98.3096 203.449 98.2863 203.293 98.2863H191.309L191.285 97.7139C191.527 97.5815 191.749 97.4881 191.951 97.4336C192.161 97.3713 192.391 97.3207 192.64 97.2817C192.952 97.2272 193.178 97.1572 193.318 97.0715C193.466 96.9858 193.579 96.8028 193.657 96.5225C193.734 96.2344 193.773 95.7827 193.773 95.1675V86.3253C193.773 85.7179 193.723 85.2702 193.621 84.982C193.528 84.6939 193.388 84.4953 193.201 84.3863C193.014 84.2695 192.703 84.1449 192.267 84.0125C192.196 83.9892 192.06 83.9464 191.858 83.8841C191.663 83.8218 191.472 83.7517 191.285 83.6738L191.309 83.0781H203.223C203.332 83.0781 203.449 83.0703 203.573 83.0547C203.706 83.0392 203.799 83.0275 203.854 83.0197C204.087 82.9808 204.298 82.9613 204.484 82.9613C204.648 82.9613 204.792 82.9769 204.917 83.008V86.6407L204.309 86.664C204.177 86.5317 204.068 86.3837 203.982 86.2202C203.897 86.0567 203.799 85.8425 203.69 85.5778C203.534 85.1884 203.379 84.8847 203.223 84.6667C203.075 84.4486 202.853 84.289 202.557 84.1878C202.121 84.0476 201.58 83.958 200.934 83.9191C200.287 83.8802 199.54 83.8607 198.691 83.8607C197.694 83.8607 196.908 83.8957 196.331 83.9658C196.3 84.3162 196.285 84.7173 196.285 85.1689V89.9113H199.649C200.264 89.9113 200.723 89.8645 201.027 89.7711C201.331 89.6777 201.564 89.5258 201.728 89.3156C201.899 89.1053 202.133 88.7315 202.429 88.1942L202.604 87.8788H203.27V92.8898L202.604 92.9249C202.355 92.2552 202.035 91.7334 201.646 91.3597C201.265 90.9859 200.751 90.799 200.104 90.799H196.285V94.7354C196.285 95.553 196.378 96.1565 196.565 96.5459C196.76 96.9352 197.036 97.1883 197.394 97.3051C197.76 97.4141 198.278 97.4686 198.948 97.4686H200.093C201.074 97.4686 201.919 97.3596 202.627 97.1416C203.344 96.9158 203.873 96.4602 204.216 95.7749L204.379 95.4128C204.52 95.1091 204.632 94.8833 204.718 94.7354C204.804 94.5796 204.913 94.4317 205.045 94.2915H205.781L205.01 98.3914ZM211.82 83.9425C211.104 83.9425 210.535 83.9736 210.115 84.0359C209.842 84.0748 209.593 84.1839 209.367 84.363C209.149 84.5421 208.958 84.7445 208.795 84.9704C208.639 85.1962 208.448 85.4999 208.222 85.8814C207.989 86.2942 207.786 86.6056 207.615 86.8159H207.078L207.37 83.008C208.654 83.0625 210.313 83.0898 212.346 83.0898L216.901 83.0781H218.431C220.004 83.0781 221.277 83.0469 222.251 82.9847L222.624 86.8276H222.064C221.947 86.6874 221.826 86.5122 221.702 86.302C221.577 86.0839 221.495 85.9437 221.456 85.8814C221.145 85.3286 220.853 84.8964 220.58 84.5849C220.316 84.2734 220 84.0904 219.634 84.0359C219.369 83.997 219.101 83.9736 218.828 83.9658C218.564 83.9503 218.229 83.9425 217.824 83.9425H216.037V95.4712C216.037 96.0709 216.138 96.5186 216.34 96.8145C216.551 97.1026 216.823 97.2973 217.158 97.3985C217.501 97.4998 218.007 97.5932 218.676 97.6789C218.676 97.9514 218.669 98.1539 218.653 98.2863H210.921L210.897 97.6789C211.03 97.6322 211.236 97.5699 211.516 97.492C211.976 97.3518 212.338 97.2194 212.603 97.0949C212.867 96.9703 213.085 96.7795 213.257 96.5225C213.436 96.2655 213.525 95.9151 213.525 95.4712V83.9425H211.82ZM228.126 83.9425C227.41 83.9425 226.841 83.9736 226.421 84.0359C226.148 84.0748 225.899 84.1839 225.673 84.363C225.455 84.5421 225.264 84.7445 225.101 84.9704C224.945 85.1962 224.754 85.4999 224.528 85.8814C224.295 86.2942 224.092 86.6056 223.921 86.8159H223.384L223.676 83.008C224.961 83.0625 226.619 83.0898 228.652 83.0898L233.207 83.0781H234.737C236.31 83.0781 237.583 83.0469 238.557 82.9847L238.931 86.8276H238.37C238.253 86.6874 238.132 86.5122 238.008 86.302C237.883 86.0839 237.802 85.9437 237.763 85.8814C237.451 85.3286 237.159 84.8964 236.887 84.5849C236.622 84.2734 236.306 84.0904 235.94 84.0359C235.676 83.997 235.407 83.9736 235.134 83.9658C234.87 83.9503 234.535 83.9425 234.13 83.9425H232.343V95.4712C232.343 96.0709 232.444 96.5186 232.646 96.8145C232.857 97.1026 233.129 97.2973 233.464 97.3985C233.807 97.4998 234.313 97.5932 234.983 97.6789C234.983 97.9514 234.975 98.1539 234.959 98.2863H227.227L227.203 97.6789C227.336 97.6322 227.542 97.5699 227.822 97.492C228.282 97.3518 228.644 97.2194 228.909 97.0949C229.173 96.9703 229.391 96.7795 229.563 96.5225C229.742 96.2655 229.831 95.9151 229.831 95.4712V83.9425H228.126ZM253.812 98.3914C253.687 98.4148 253.563 98.4264 253.438 98.4264C253.29 98.4264 253.068 98.4031 252.772 98.3564C252.476 98.3096 252.25 98.2863 252.095 98.2863H240.11L240.087 97.7139C240.328 97.5815 240.55 97.4881 240.753 97.4336C240.963 97.3713 241.193 97.3207 241.442 97.2817C241.753 97.2272 241.979 97.1572 242.119 97.0715C242.267 96.9858 242.38 96.8028 242.458 96.5225C242.536 96.2344 242.575 95.7827 242.575 95.1675V86.3253C242.575 85.7179 242.524 85.2702 242.423 84.982C242.33 84.6939 242.19 84.4953 242.003 84.3863C241.816 84.2695 241.504 84.1449 241.068 84.0125C240.998 83.9892 240.862 83.9464 240.659 83.8841C240.465 83.8218 240.274 83.7517 240.087 83.6738L240.11 83.0781H252.025C252.134 83.0781 252.25 83.0703 252.375 83.0547C252.507 83.0392 252.601 83.0275 252.655 83.0197C252.889 82.9808 253.099 82.9613 253.286 82.9613C253.45 82.9613 253.594 82.9769 253.718 83.008V86.6407L253.111 86.664C252.979 86.5317 252.87 86.3837 252.784 86.2202C252.698 86.0567 252.601 85.8425 252.492 85.5778C252.336 85.1884 252.18 84.8847 252.025 84.6667C251.877 84.4486 251.655 84.289 251.359 84.1878C250.923 84.0476 250.382 83.958 249.735 83.9191C249.089 83.8802 248.341 83.8607 247.493 83.8607C246.496 83.8607 245.709 83.8957 245.133 83.9658C245.102 84.3162 245.086 84.7173 245.086 85.1689V89.9113H248.45C249.066 89.9113 249.525 89.8645 249.829 89.7711C250.132 89.6777 250.366 89.5258 250.53 89.3156C250.701 89.1053 250.934 88.7315 251.23 88.1942L251.406 87.8788H252.071V92.8898L251.406 92.9249C251.156 92.2552 250.837 91.7334 250.448 91.3597C250.066 90.9859 249.552 90.799 248.906 90.799H245.086V94.7354C245.086 95.553 245.18 96.1565 245.367 96.5459C245.561 96.9352 245.838 97.1883 246.196 97.3051C246.562 97.4141 247.08 97.4686 247.75 97.4686H248.894C249.875 97.4686 250.72 97.3596 251.429 97.1416C252.145 96.9158 252.675 96.4602 253.017 95.7749L253.181 95.4128C253.321 95.1091 253.434 94.8833 253.52 94.7354C253.605 94.5796 253.714 94.4317 253.847 94.2915H254.583L253.812 98.3914ZM263.6 91.9554C263.413 91.675 263.254 91.4687 263.121 91.3363C262.997 91.2039 262.845 91.1027 262.666 91.0326C262.487 90.9625 262.241 90.9197 261.93 90.9041L261.194 90.8574V95.3544C261.194 95.9151 261.241 96.3278 261.334 96.5926C261.435 96.8573 261.568 97.0326 261.731 97.1182C261.903 97.2039 262.156 97.274 262.49 97.3285C262.732 97.3674 262.946 97.4102 263.133 97.457C263.32 97.5037 263.514 97.5777 263.717 97.6789L263.694 98.2863H256.3L256.276 97.6789C256.487 97.5621 256.681 97.4803 256.86 97.4336C257.047 97.3791 257.261 97.3324 257.503 97.2934C257.814 97.2467 258.044 97.1805 258.192 97.0949C258.348 97.0014 258.468 96.8028 258.554 96.4991C258.64 96.1954 258.683 95.7126 258.683 95.0507V86.1968C258.683 85.6439 258.636 85.2312 258.542 84.9587C258.449 84.6783 258.313 84.4876 258.134 84.3863C257.962 84.2773 257.69 84.1644 257.316 84.0476C256.919 83.9386 256.572 83.8179 256.276 83.6855L256.3 83.0781H261.685C263.141 83.0781 264.414 83.1443 265.504 83.2767C266.594 83.409 267.568 83.7595 268.424 84.3279C269.289 84.8964 269.721 85.7724 269.721 86.9561C269.721 87.6881 269.514 88.3227 269.102 88.86C268.697 89.3895 268.171 89.8061 267.525 90.1098C266.886 90.4135 266.201 90.6199 265.469 90.7289C265.563 90.8535 266.026 91.4998 266.859 92.6679C267.474 93.54 267.996 94.2681 268.424 94.8522C268.86 95.4362 269.293 95.9852 269.721 96.4991C269.978 96.7717 270.207 96.9858 270.41 97.1416C270.612 97.2973 270.866 97.4219 271.169 97.5154C271.473 97.6088 271.854 97.6555 272.314 97.6555V98.3096C271.543 98.4965 270.858 98.59 270.258 98.59C269.433 98.59 268.673 98.3369 267.98 97.8307C267.295 97.3246 266.699 96.725 266.193 96.0319C265.695 95.3389 265.123 94.455 264.476 93.3804C264.095 92.7263 263.803 92.2513 263.6 91.9554ZM261.778 90.0748C262.775 90.0748 263.635 90.0164 264.359 89.8996C265.084 89.7828 265.703 89.5063 266.217 89.0703C266.738 88.6342 266.999 87.9762 266.999 87.0962C266.999 86.1306 266.719 85.4181 266.158 84.9587C265.605 84.4992 264.955 84.2189 264.208 84.1177C263.46 84.0087 262.541 83.9541 261.451 83.9541H261.194V90.0748H261.778ZM294.075 97.1766C293.257 97.6049 292.319 97.9475 291.26 98.2045C290.201 98.4615 289.13 98.59 288.048 98.59C286.288 98.59 284.738 98.2707 283.399 97.6322C282.067 96.9858 281.032 96.0786 280.292 94.9106C279.56 93.7347 279.194 92.3759 279.194 90.834C279.194 89.2533 279.614 87.8516 280.455 86.629C281.296 85.4064 282.425 84.4603 283.843 83.7906C285.26 83.1209 286.806 82.7861 288.48 82.7861C289.399 82.7861 290.24 82.8562 291.003 82.9963C291.774 83.1365 292.642 83.3779 293.608 83.7205L293.958 87.2481C293.717 87.2714 293.491 87.2831 293.281 87.2831C293.172 87.1897 293.07 87.069 292.977 86.921C292.891 86.7731 292.771 86.5511 292.615 86.2552C292.537 86.0995 292.455 85.9476 292.37 85.7997C292.284 85.6439 292.206 85.5232 292.136 85.4376C291.155 84.2695 289.835 83.6855 288.176 83.6855C286.993 83.6855 285.93 83.9775 284.987 84.5615C284.045 85.1456 283.309 85.9515 282.78 86.9794C282.25 87.9995 281.985 89.1403 281.985 90.4019C281.985 91.7646 282.246 92.9911 282.768 94.0813C283.298 95.1714 284.037 96.0241 284.987 96.6393C285.937 97.2545 287.024 97.5621 288.246 97.5621C288.893 97.5621 289.461 97.5076 289.952 97.3985C290.45 97.2817 290.921 97.0832 291.365 96.8028C291.458 96.0086 291.505 95.0196 291.505 93.836C291.505 93.0962 291.396 92.4265 291.178 91.8269C291.092 91.5855 290.929 91.4181 290.688 91.3246C290.454 91.2234 290.135 91.1416 289.73 91.0793C289.372 91.017 289.122 90.9586 288.982 90.9041C288.982 90.7873 288.986 90.6705 288.994 90.5537C289.002 90.4291 289.006 90.3434 289.006 90.2967H296.014C296.014 90.3434 296.018 90.4291 296.026 90.5537C296.033 90.6705 296.037 90.7873 296.037 90.9041C295.936 90.9431 295.823 90.982 295.699 91.0209C295.325 91.1533 295.033 91.2779 294.822 91.3947C294.612 91.5115 294.433 91.6906 294.285 91.932C294.145 92.1656 294.075 92.481 294.075 92.8781V97.1766ZM305.685 82.7861C307.149 82.7861 308.493 83.1131 309.715 83.7673C310.938 84.4214 311.907 85.3519 312.624 86.5589C313.348 87.7581 313.71 89.1442 313.71 90.7172C313.71 92.2591 313.336 93.6296 312.589 94.8288C311.849 96.0202 310.848 96.9469 309.587 97.6088C308.325 98.2629 306.947 98.59 305.452 98.59C304.074 98.59 302.785 98.2746 301.586 97.6438C300.386 97.0131 299.421 96.1098 298.689 94.9339C297.965 93.7581 297.602 92.3953 297.602 90.8457C297.602 89.1403 297.984 87.6803 298.747 86.4655C299.518 85.2507 300.519 84.3357 301.749 83.7205C302.987 83.0976 304.299 82.7861 305.685 82.7861ZM306.071 97.6906C307.005 97.6906 307.846 97.4414 308.594 96.943C309.342 96.4446 309.926 95.7243 310.346 94.7821C310.774 93.8399 310.988 92.7302 310.988 91.4531C310.988 90.0047 310.747 88.6926 310.264 87.5167C309.781 86.3331 309.104 85.3986 308.232 84.7134C307.367 84.0281 306.382 83.6855 305.277 83.6855C304.366 83.6855 303.532 83.923 302.777 84.398C302.029 84.8652 301.434 85.5661 300.99 86.5005C300.546 87.435 300.324 88.5602 300.324 89.8762C300.324 91.3402 300.569 92.6679 301.06 93.8593C301.551 95.0507 302.232 95.9891 303.104 96.6744C303.984 97.3518 304.973 97.6906 306.071 97.6906ZM318.522 86.2085C318.522 85.5778 318.472 85.1183 318.371 84.8302C318.269 84.5343 318.121 84.3357 317.927 84.2345C317.732 84.1332 317.417 84.0398 316.981 83.9541C316.451 83.8373 316.07 83.7439 315.836 83.6738L315.859 83.0781H323.755V83.6855C323.53 83.7789 323.327 83.849 323.148 83.8957C322.969 83.9347 322.731 83.9814 322.435 84.0359C322.062 84.0982 321.785 84.1761 321.606 84.2695C321.427 84.3552 321.287 84.5382 321.186 84.8185C321.092 85.0988 321.045 85.5388 321.045 86.1384V94.6419C321.045 95.5842 321.135 96.2383 321.314 96.6043C321.501 96.9625 321.848 97.1883 322.354 97.2817C322.86 97.3752 323.787 97.4219 325.134 97.4219C325.99 97.4219 326.711 97.3129 327.295 97.0949C327.886 96.869 328.358 96.4213 328.708 95.7516L328.883 95.4012C329.008 95.1442 329.121 94.93 329.222 94.7587C329.323 94.5796 329.44 94.4161 329.572 94.2681L330.273 94.2915L329.537 98.4148C328.494 98.3291 327.641 98.2863 326.979 98.2863H315.848L315.824 97.6555C315.941 97.6166 316.19 97.5426 316.572 97.4336C317.016 97.3168 317.366 97.2039 317.623 97.0949C317.88 96.978 318.094 96.7951 318.266 96.5459C318.437 96.2889 318.522 95.9346 318.522 95.4829V86.2085ZM342.842 92.8431C342.624 92.8665 342.402 92.8781 342.176 92.8781C341.818 92.1306 341.522 91.6089 341.288 91.3129C341.054 91.017 340.782 90.8262 340.47 90.7406C340.167 90.6549 339.672 90.6121 338.987 90.6121H336.078V95.2727C336.078 95.8723 336.137 96.3161 336.254 96.6043C336.37 96.8846 336.526 97.0715 336.721 97.1649C336.923 97.2506 337.227 97.3246 337.632 97.3869C337.92 97.4336 338.154 97.4764 338.333 97.5154C338.52 97.5465 338.718 97.601 338.929 97.6789V98.2863H331.056L331.032 97.6789C331.219 97.5932 331.398 97.527 331.57 97.4803C331.741 97.4336 331.889 97.3985 332.014 97.3752C332.146 97.344 332.232 97.3246 332.271 97.3168C332.621 97.2467 332.878 97.1688 333.041 97.0832C333.205 96.9897 333.334 96.8067 333.427 96.5342C333.52 96.2538 333.567 95.8217 333.567 95.2376V86.3604C333.567 85.7296 333.513 85.2663 333.404 84.9704C333.302 84.6667 333.151 84.4603 332.948 84.3513C332.753 84.2345 332.434 84.1138 331.99 83.9892C331.578 83.8802 331.235 83.775 330.962 83.6738V83.0781L342.655 83.0664L344.617 83.0431V86.664L344.091 86.6874C343.975 86.555 343.869 86.4149 343.776 86.2669C343.683 86.1112 343.566 85.9009 343.426 85.6362C343.246 85.3013 343.091 85.0365 342.958 84.8419C342.826 84.6394 342.659 84.4603 342.456 84.3046C342.261 84.1488 342.028 84.0515 341.755 84.0125C341.389 83.958 341.019 83.9269 340.646 83.9191C340.28 83.9035 339.82 83.8957 339.267 83.8957H337.025C336.729 83.8957 336.518 83.9113 336.394 83.9425C336.277 83.9736 336.195 84.0476 336.149 84.1644C336.102 84.2734 336.078 84.4642 336.078 84.7367V89.7244C336.413 89.7244 336.869 89.7322 337.445 89.7477C337.959 89.7633 338.333 89.7711 338.566 89.7711C339.485 89.7711 340.241 89.6932 340.832 89.5375C341.089 89.4674 341.288 89.335 341.428 89.1403C341.576 88.9379 341.724 88.6614 341.872 88.311C341.895 88.2565 341.934 88.1709 341.989 88.054C342.043 87.9295 342.098 87.8243 342.152 87.7387L342.842 87.762V92.8431Z" fill="#FD8435"/>
<path d="M89.658 30.9539V50.6803H85.8894V30.9539H89.658ZM79.5887 32.6321V29.1579H95.9586V32.6321H79.5887ZM102.608 50.6803H98.8394V29.1579H102.608V38.079H112.147V29.1579H115.916V50.6803H112.147V41.5532H102.608V50.6803ZM134.029 50.6803H120.662V29.1579H134.029V32.6321H123.106L124.431 31.425V38.1673H133.028V41.4943H124.431V48.4132L123.106 47.2061H134.029V50.6803ZM155.444 32.3377C154.03 32.3377 152.823 32.6616 151.822 33.3093C150.821 33.957 150.056 34.8599 149.526 36.018C148.996 37.1564 148.731 38.5108 148.731 40.081C148.731 41.6709 149.015 43.0253 149.584 44.1441C150.154 45.2433 150.939 46.0775 151.94 46.6467C152.961 47.2159 154.128 47.5005 155.444 47.5005C156.405 47.5005 157.249 47.3827 157.976 47.1472C158.721 46.892 159.35 46.5289 159.86 46.0578C160.37 45.5671 160.763 44.9783 161.038 44.2913C161.332 43.6043 161.479 42.8388 161.479 41.9948V40.1105L163.246 41.9065H154.972V38.5795H164.983V50.6803H161.803L161.479 47.2061L161.921 47.6477C161.607 48.2955 161.106 48.8745 160.419 49.3848C159.752 49.8952 158.957 50.2975 158.034 50.592C157.112 50.8668 156.111 51.0042 155.031 51.0042C153.029 51.0042 151.253 50.5527 149.702 49.6498C148.171 48.7273 146.964 47.4416 146.081 45.7929C145.217 44.1441 144.785 42.2107 144.785 39.9927C144.785 37.814 145.227 35.8904 146.11 34.222C147.013 32.534 148.269 31.2091 149.879 30.2473C151.508 29.2855 153.392 28.8046 155.532 28.8046C157.181 28.8046 158.672 29.1088 160.007 29.7173C161.342 30.3062 162.431 31.1404 163.275 32.2199C164.139 33.2995 164.669 34.5753 164.865 36.0474H160.89C160.557 34.7716 159.889 33.8393 158.888 33.2504C157.887 32.6419 156.739 32.3377 155.444 32.3377ZM188.632 39.9044C188.632 42.0831 188.191 44.0165 187.308 45.7045C186.424 47.3729 185.198 48.6782 183.627 49.6204C182.057 50.5625 180.241 51.0336 178.18 51.0336C176.139 51.0336 174.333 50.5625 172.763 49.6204C171.193 48.6782 169.966 47.3729 169.083 45.7045C168.219 44.0361 167.787 42.1126 167.787 39.9338C167.787 37.7355 168.229 35.8021 169.112 34.1337C169.995 32.4456 171.212 31.1306 172.763 30.1884C174.333 29.2462 176.149 28.7752 178.21 28.7752C180.271 28.7752 182.077 29.2462 183.627 30.1884C185.198 31.1306 186.424 32.4358 187.308 34.1042C188.191 35.7726 188.632 37.706 188.632 39.9044ZM184.687 39.9044C184.687 38.3734 184.422 37.0485 183.892 35.9297C183.362 34.8109 182.616 33.9472 181.655 33.3387C180.693 32.7106 179.545 32.3966 178.21 32.3966C176.895 32.3966 175.747 32.7106 174.765 33.3387C173.803 33.9472 173.057 34.8109 172.527 35.9297C171.998 37.0485 171.733 38.3734 171.733 39.9044C171.733 41.4354 171.998 42.7701 172.527 43.9085C173.057 45.0274 173.803 45.891 174.765 46.4995C175.747 47.108 176.895 47.4122 178.21 47.4122C179.545 47.4122 180.693 47.108 181.655 46.4995C182.616 45.8714 183.362 44.9979 183.892 43.8791C184.422 42.7407 184.687 41.4158 184.687 39.9044ZM195.938 29.1579V50.6803H192.169V29.1579H195.938ZM192.817 50.6803V47.2061H204.918V50.6803H192.817ZM211.781 29.1579V50.6803H208.012V29.1579H211.781ZM221.32 32.6321H208.306V29.1579H221.32V32.6321ZM219.789 41.877H208.248V38.4911H219.789V41.877ZM290.028 50.6803H286.141L293.914 29.1579H297.771L305.544 50.6803H301.569L299.832 45.7045H291.794L290.028 50.6803ZM295.357 35.5764L292.884 42.5248H298.743L296.269 35.5764C296.191 35.2819 296.103 34.9875 296.004 34.6931C295.906 34.3987 295.847 34.1435 295.828 33.9276C295.789 34.1239 295.72 34.379 295.622 34.6931C295.543 34.9875 295.455 35.2819 295.357 35.5764ZM312.011 29.1579V50.6803H308.243V29.1579H312.011ZM316.751 43.2608H311.098V39.9044H315.956C317.252 39.9044 318.233 39.5805 318.901 38.9328C319.588 38.2654 319.931 37.3429 319.931 36.1652C319.931 34.9875 319.588 34.0846 318.901 33.4565C318.233 32.8284 317.272 32.5143 316.015 32.5143H310.745V29.1579H316.751C318.204 29.1579 319.46 29.4523 320.52 30.0412C321.58 30.63 322.404 31.4544 322.993 32.5143C323.582 33.5546 323.876 34.7814 323.876 36.1946C323.876 37.5686 323.582 38.7954 322.993 39.8749C322.404 40.9349 321.58 41.7691 320.52 42.3775C319.46 42.9664 318.204 43.2608 316.751 43.2608ZM330.815 29.1579V50.6803H327.047V29.1579H330.815ZM335.555 43.2608H329.903V39.9044H334.76C336.056 39.9044 337.037 39.5805 337.705 38.9328C338.392 38.2654 338.735 37.3429 338.735 36.1652C338.735 34.9875 338.392 34.0846 337.705 33.4565C337.037 32.8284 336.076 32.5143 334.819 32.5143H329.549V29.1579H335.555C337.008 29.1579 338.264 29.4523 339.324 30.0412C340.384 30.63 341.208 31.4544 341.797 32.5143C342.386 33.5546 342.68 34.7814 342.68 36.1946C342.68 37.5686 342.386 38.7954 341.797 39.8749C341.208 40.9349 340.384 41.7691 339.324 42.3775C338.264 42.9664 337.008 43.2608 335.555 43.2608Z" fill="black"/>
<path d="M261.127 16H244.918C243.846 16 242.818 16.4837 242.061 17.3447C241.303 18.2057 240.877 19.3735 240.877 20.5912V57.4102C240.877 59.9474 242.687 62.0037 244.918 62.0037H261.125C262.197 62.0037 263.225 61.5201 263.983 60.6591C264.741 59.7982 265.167 58.6304 265.167 57.4125V20.5912C265.167 19.3735 264.742 18.2057 263.984 17.3447C263.226 16.4837 262.199 16 261.127 16V16ZM253.022 59.7035C251.626 59.7035 250.492 58.6754 250.492 57.4033C250.492 56.1313 251.626 55.1032 253.022 55.1032C254.419 55.1032 255.553 56.1313 255.553 57.4033C255.553 58.6754 254.419 59.7035 253.022 59.7035ZM261.119 52.803H244.926V20.6004H261.119V52.803Z" fill="#FD8435"/>
</svg>